<?xml version="1.0" standalone="no"?>
<!DOCTYPE svg PUBLIC "-//W3C//DTD SVG 20010904//EN"
 "http://www.w3.org/TR/2001/REC-SVG-20010904/DTD/svg10.dtd">
<svg version="1.0" xmlns="http://www.w3.org/2000/svg"
 width="920.000000pt" height="920.000000pt" viewBox="0 0 920.000000 920.000000"
 preserveAspectRatio="xMidYMid meet">
<metadata>
Created by potrace 1.11, written by Peter Selinger 2001-2013
</metadata>
<g transform="translate(0.000000,920.000000) scale(0.100000,-0.100000)"
fill="#000000" stroke="none">
<path d="M3820 8520 c-307 -8 -358 -18 -525 -100 -122 -60 -206 -122 -310
-232 -174 -181 -310 -420 -420 -739 l-36 -105 -408 4 c-442 5 -545 -1 -710
-44 -241 -63 -460 -216 -601 -420 -70 -101 -145 -262 -178 -381 l-27 -98 -3
-2005 c-3 -2227 -8 -2049 65 -2269 131 -397 396 -662 754 -755 52 -13 124 -27
161 -31 l67 -7 4 38 4 39 1 -38 2 -37 2998 2 2997 3 96 26 c209 58 349 138
489 278 130 130 227 291 291 479 62 185 59 57 59 2209 0 1931 0 1967 -20 2064
-92 450 -389 779 -823 911 -69 21 -93 22 -571 28 l-498 5 -42 120 c-158 453
-422 793 -746 959 -140 71 -198 88 -350 97 -159 9 -1338 8 -1720 -1z m1844
-543 c61 -31 104 -64 172 -132 176 -174 296 -406 379 -734 40 -159 73 -208
165 -250 44 -20 63 -21 607 -21 366 0 581 -4 615 -11 29 -6 91 -29 137 -51
162 -77 281 -232 331 -432 20 -78 20 -114 20 -2006 0 -1899 0 -1928 -20 -2006
-62 -244 -205 -406 -415 -471 -58 -17 -174 -18 -3065 -18 l-3005 0 -67 23
c-184 64 -308 203 -384 432 l-29 85 -3 1946 c-3 2176 -8 2021 69 2179 57 115
153 212 261 264 135 65 147 66 788 66 l575 0 52 30 c71 41 107 96 138 216 93
354 223 614 387 775 59 56 155 115 233 140 45 15 932 26 1604 21 l374 -3 81
-42z"/>
<path d="M6748 6355 c-49 -33 -78 -96 -78 -170 0 -74 29 -137 78 -170 l37 -25
391 0 c389 0 391 0 424 23 107 71 108 270 2 342 l-37 25 -390 0 -390 0 -37
-25z"/>
<path d="M4460 6049 c-597 -46 -1133 -412 -1395 -954 -298 -616 -200 -1344
249 -1858 351 -401 895 -624 1407 -578 247 23 425 72 634 177 174 86 296 175
440 319 145 145 233 267 319 440 78 157 106 235 140 385 159 718 -150 1444
-779 1830 -153 94 -380 182 -555 214 -73 14 -315 38 -345 34 -5 0 -57 -4 -115
-9z m421 -532 c439 -115 761 -437 875 -874 35 -133 44 -357 20 -487 -111 -587
-595 -996 -1181 -996 -662 0 -1195 533 -1195 1195 0 582 409 1069 990 1180
120 23 370 14 491 -18z"/>
</g>
</svg>
